<?xml version="1.0" encoding="UTF-8" standalone="no"?>
<!-- Generator: Adobe Illustrator 13.0.0, SVG Export Plug-In . SVG Version: 6.00 Build 14948)  -->

<svg
   version="1.1"
   id="Layer_1"
   x="0px"
   y="0px"
   width="106.28201"
   height="106.3"
   viewBox="0 0 106.28201 106.3"
   enable-background="new 0 0 675.6 106.3"
   xml:space="preserve"
   sodipodi:docname="tprf.svg"
   inkscape:version="1.1.2 (0a00cf5339, 2022-02-04)"
   xmlns:inkscape="http://www.inkscape.org/namespaces/inkscape"
   xmlns:sodipodi="http://sodipodi.sourceforge.net/DTD/sodipodi-0.dtd"
   xmlns="http://www.w3.org/2000/svg"
   xmlns:svg="http://www.w3.org/2000/svg"><defs
   id="defs55" /><sodipodi:namedview
   id="namedview53"
   pagecolor="#ffffff"
   bordercolor="#666666"
   borderopacity="1.0"
   inkscape:pageshadow="2"
   inkscape:pageopacity="0.0"
   inkscape:pagecheckerboard="0"
   showgrid="false"
   fit-margin-top="0"
   fit-margin-left="0"
   fit-margin-right="0"
   fit-margin-bottom="0"
   inkscape:zoom="1.6341031"
   inkscape:cx="-152.37717"
   inkscape:cy="163.69836"
   inkscape:window-width="1920"
   inkscape:window-height="1007"
   inkscape:window-x="0"
   inkscape:window-y="0"
   inkscape:window-maximized="1"
   inkscape:current-layer="Layer_1" />
<path
   fill="#38457d"
   d="M 106.282,53.150001 C 106.287,23.801001 82.499001,0.0050005 53.150001,5.0438205e-7 23.801001,-0.0039995 0.00500079,23.784001 7.8803494e-7,53.133001 v 0.017 C -0.00499921,82.499001 23.784001,106.295 53.132001,106.3 82.481001,106.304 106.277,82.516001 106.282,53.167001 Z"
   id="path2" />
<path
   fill="#ffffff"
   d="m 57.343001,92.763001 c -1.246,0 -1.121,2.438 0.212,4.133 1.233,1.568 3.629,2.263 3.629,1.055 10e-4,-1.008 -3.096,-5.188 -3.841,-5.188 m -8.284,-0.249 c -0.495,-0.01 -0.902,0.555 -1.308,1.72 -0.34,0.976 -1.011,1.92 -1.489,2.104 -1.288,0.493 -1.056,2.195 0.301,2.195 0.644,0 1.604,-0.435 2.131,-0.962 1.764,-1.763 2.314,-3.289 1.526,-4.239 -0.445,-0.534 -0.823,-0.811 -1.161,-0.818 m 4.201,-1.119 c -0.83,-0.026 -1.188,1.393 -1.188,4.479 0,3.754 0.072,3.947 1.369,3.764 1.205,-0.171 1.386,-0.6 1.544,-3.592 0.129,-2.449 -0.073,-3.606 -0.731,-4.152 -0.386,-0.321 -0.716,-0.49 -0.994,-0.499 m 4.351,-61.898 c 0.138,-0.028 0.54,0.451 1.008,1.221 0.575,0.946 4.084,3.997 7.799,6.782 11.538,8.744 21.054,17.492 16.328,32.759 -1.616,4.581 -3.954,8.272 -7.84,12.38 -2.176,2.299 -5.06,4.354 -6.112,4.354 -0.189,0 1.003,-1.715 2.649,-3.809 5.341,-6.797 7.882,-14.855 7.152,-22.672 -0.67,-7.175 -6.219,-15.884 -14.993,-23.536 -3.645,-3.179 -6.067,-6.135 -6.042,-7.374 0.002,-0.061 0.02,-0.099 0.051,-0.105 m -2.853,-18.326 c -0.411,0.068 -0.561,3.616 -0.568,11.6 l -0.014,11.691 -2.973,11.234 c -3.313,10.153 -3.811,20.513 -1.377,30.868 2.228,8.798 3.179,10.539 6.259,11.414 1.372,0.391 3.559,1.417 4.859,2.284 2.941,1.962 5.573,1.74 10.846,-0.924 7.676,-3.878 12.821,-8.88 16.25,-15.798 2.977,-6.585 3.42,-14.819 0.272,-21.373 -2.793,-5.652 -7.519,-10.207 -17.41,-16.772 -8.641,-5.735 -10.46,-7.267 -12.589,-10.596 -1.284,-2.008 -1.471,-2.89 -1.229,-5.769 0.157,-1.87 0.503,-3.908 0.767,-4.531 0.404,-0.954 0.274,-1.07 -0.809,-0.726 -1.034,0.328 -1.36,0.106 -1.673,-1.142 -0.246,-0.981 -0.45,-1.486 -0.611,-1.46 m -6.023,-2.5240005 c -0.745,0 -0.911,1.039 -0.911,5.6820005 0,3.123 -0.32,6.608 -0.708,7.744 -1.246,3.652 -4.61,6.941 -13.915,13.601 -6.728,4.815 -12.367,10.596 -14.544,14.909 -6.653,13.18 -0.776,29.213 13.666,37.289 6.445,3.605 11.853,5.008 11.853,3.07 0,-0.501 -0.216,-0.911 -0.485,-0.911 -0.269,0 -2.525,-1.328 -5.012,-2.949 -10.749,-7.011 -15.766,-15.688 -14.969,-25.899 0.597,-7.63 3.49,-12.303 15.168,-24.511 10.074,-10.531 10.75,-11.87 10.758,-21.192 0.006,-5.6710005 -0.145,-6.8330005 -0.901,-6.8330005 m 3.023,-4.854 c -0.591,0 -0.827,2.752 -1.008,11.6870005 -0.23,11.425 -0.276,11.782 -2.034,15.64 -1.442,3.165 -6.486,10.688 -8.141,12.145 -1.491,1.311 -4.728,6.229 -6.315,9.592 -2.833,6.01 -2.631,14.062 -0.157,20.166 2.069,4.771 5.04,8.615 9.828,12.713 3.758,3.216 4.917,3.672 5.492,2.173 0.196,-0.509 -0.647,-2.285 -1.927,-4.067 -1.251,-1.741 -3.371,-5.441 -4.707,-8.226 -5.524,-11.691 -2.794,-21.402 3.602,-32.143 3.56,-5.566 5.607,-10.559 6.31,-15.391 0.882,-6.055 0.174,-24.2890005 -0.943,-24.2890005"
   id="path4" />























</svg>
