<?xml version="1.0" encoding="UTF-8" standalone="no"?>
<!-- Generator: Adobe Illustrator 13.0.0, SVG Export Plug-In . SVG Version: 6.00 Build 14948)  -->

<svg
   version="1.1"
   id="Layer_1"
   x="0px"
   y="0px"
   width="417.09235"
   height="106.3"
   viewBox="0 0 417.09236 106.3"
   enable-background="new 0 0 675.6 106.3"
   xml:space="preserve"
   sodipodi:docname="tprf-with-text.svg"
   inkscape:export-filename="/home/jjatria/tprf-with-text.png"
   inkscape:export-xdpi="361.29999"
   inkscape:export-ydpi="361.29999"
   inkscape:version="1.1.2 (0a00cf5339, 2022-02-04)"
   xmlns:inkscape="http://www.inkscape.org/namespaces/inkscape"
   xmlns:sodipodi="http://sodipodi.sourceforge.net/DTD/sodipodi-0.dtd"
   xmlns="http://www.w3.org/2000/svg"
   xmlns:svg="http://www.w3.org/2000/svg"><defs
   id="defs55" /><sodipodi:namedview
   id="namedview53"
   pagecolor="#ffffff"
   bordercolor="#666666"
   borderopacity="1.0"
   inkscape:pageshadow="2"
   inkscape:pageopacity="0.0"
   inkscape:pagecheckerboard="0"
   showgrid="false"
   fit-margin-top="0"
   fit-margin-left="0"
   fit-margin-right="0"
   fit-margin-bottom="0"
   inkscape:zoom="1.6341031"
   inkscape:cx="225.81195"
   inkscape:cy="95.465214"
   inkscape:window-width="1920"
   inkscape:window-height="1007"
   inkscape:window-x="0"
   inkscape:window-y="0"
   inkscape:window-maximized="1"
   inkscape:current-layer="Layer_1" />
<path
   fill="#38457d"
   d="M 106.282,53.150001 C 106.287,23.801001 82.499001,0.0050005 53.150001,5.0438205e-7 23.801001,-0.0039995 0.00500079,23.784001 7.8803494e-7,53.133001 v 0.017 C -0.00499921,82.499001 23.784001,106.295 53.132001,106.3 82.481001,106.304 106.277,82.516001 106.282,53.167001 Z"
   id="path2" />
<path
   fill="#ffffff"
   d="m 57.343001,92.763001 c -1.246,0 -1.121,2.438 0.212,4.133 1.233,1.568 3.629,2.263 3.629,1.055 10e-4,-1.008 -3.096,-5.188 -3.841,-5.188 m -8.284,-0.249 c -0.495,-0.01 -0.902,0.555 -1.308,1.72 -0.34,0.976 -1.011,1.92 -1.489,2.104 -1.288,0.493 -1.056,2.195 0.301,2.195 0.644,0 1.604,-0.435 2.131,-0.962 1.764,-1.763 2.314,-3.289 1.526,-4.239 -0.445,-0.534 -0.823,-0.811 -1.161,-0.818 m 4.201,-1.119 c -0.83,-0.026 -1.188,1.393 -1.188,4.479 0,3.754 0.072,3.947 1.369,3.764 1.205,-0.171 1.386,-0.6 1.544,-3.592 0.129,-2.449 -0.073,-3.606 -0.731,-4.152 -0.386,-0.321 -0.716,-0.49 -0.994,-0.499 m 4.351,-61.898 c 0.138,-0.028 0.54,0.451 1.008,1.221 0.575,0.946 4.084,3.997 7.799,6.782 11.538,8.744 21.054,17.492 16.328,32.759 -1.616,4.581 -3.954,8.272 -7.84,12.38 -2.176,2.299 -5.06,4.354 -6.112,4.354 -0.189,0 1.003,-1.715 2.649,-3.809 5.341,-6.797 7.882,-14.855 7.152,-22.672 -0.67,-7.175 -6.219,-15.884 -14.993,-23.536 -3.645,-3.179 -6.067,-6.135 -6.042,-7.374 0.002,-0.061 0.02,-0.099 0.051,-0.105 m -2.853,-18.326 c -0.411,0.068 -0.561,3.616 -0.568,11.6 l -0.014,11.691 -2.973,11.234 c -3.313,10.153 -3.811,20.513 -1.377,30.868 2.228,8.798 3.179,10.539 6.259,11.414 1.372,0.391 3.559,1.417 4.859,2.284 2.941,1.962 5.573,1.74 10.846,-0.924 7.676,-3.878 12.821,-8.88 16.25,-15.798 2.977,-6.585 3.42,-14.819 0.272,-21.373 -2.793,-5.652 -7.519,-10.207 -17.41,-16.772 -8.641,-5.735 -10.46,-7.267 -12.589,-10.596 -1.284,-2.008 -1.471,-2.89 -1.229,-5.769 0.157,-1.87 0.503,-3.908 0.767,-4.531 0.404,-0.954 0.274,-1.07 -0.809,-0.726 -1.034,0.328 -1.36,0.106 -1.673,-1.142 -0.246,-0.981 -0.45,-1.486 -0.611,-1.46 m -6.023,-2.5240005 c -0.745,0 -0.911,1.039 -0.911,5.6820005 0,3.123 -0.32,6.608 -0.708,7.744 -1.246,3.652 -4.61,6.941 -13.915,13.601 -6.728,4.815 -12.367,10.596 -14.544,14.909 -6.653,13.18 -0.776,29.213 13.666,37.289 6.445,3.605 11.853,5.008 11.853,3.07 0,-0.501 -0.216,-0.911 -0.485,-0.911 -0.269,0 -2.525,-1.328 -5.012,-2.949 -10.749,-7.011 -15.766,-15.688 -14.969,-25.899 0.597,-7.63 3.49,-12.303 15.168,-24.511 10.074,-10.531 10.75,-11.87 10.758,-21.192 0.006,-5.6710005 -0.145,-6.8330005 -0.901,-6.8330005 m 3.023,-4.854 c -0.591,0 -0.827,2.752 -1.008,11.6870005 -0.23,11.425 -0.276,11.782 -2.034,15.64 -1.442,3.165 -6.486,10.688 -8.141,12.145 -1.491,1.311 -4.728,6.229 -6.315,9.592 -2.833,6.01 -2.631,14.062 -0.157,20.166 2.069,4.771 5.04,8.615 9.828,12.713 3.758,3.216 4.917,3.672 5.492,2.173 0.196,-0.509 -0.647,-2.285 -1.927,-4.067 -1.251,-1.741 -3.371,-5.441 -4.707,-8.226 -5.524,-11.691 -2.794,-21.402 3.602,-32.143 3.56,-5.566 5.607,-10.559 6.31,-15.391 0.882,-6.055 0.174,-24.2890005 -0.943,-24.2890005"
   id="path4" />











<g
   id="g897"
   transform="translate(-4.8956512,3.059783)"><polygon
     points="144.978,40.84 134.853,40.84 134.853,70.326 130.529,70.326 130.529,40.84 120.455,40.84 120.455,37.204 144.978,37.204 "
     id="polygon6"
     transform="translate(0,-25.702173)" /><path
     d="m 147.589,9.730827 h 4.324 v 14.843 h 0.098 c 0.69,-1.23 1.771,-2.311 3.096,-3.048 1.279,-0.736 2.803,-1.227 4.424,-1.227 3.194,0 8.304,1.964 8.304,10.171 v 14.153 h -4.324 v -13.66 c 0,-3.833 -1.426,-7.078 -5.504,-7.078 -2.802,0 -5.013,1.966 -5.798,4.326 -0.247,0.59 -0.296,1.228 -0.296,2.065 v 14.349 h -4.324 z"
     id="path8" /><path
     d="m 188.977,30.421827 c 0.049,-2.751 -1.133,-7.026 -5.997,-7.026 -4.373,0 -6.291,4.028 -6.633,7.026 z m -12.681,3.093 c 0.1,5.848 3.835,8.257 8.159,8.257 3.096,0 4.962,-0.541 6.586,-1.226 l 0.736,3.094 c -1.523,0.69 -4.128,1.524 -7.912,1.524 -7.322,0 -11.695,-4.865 -11.695,-12.04 0,-7.176 4.226,-12.826 11.155,-12.826 7.765,0 9.829,6.831 9.829,11.204 0,0.885 -0.1,1.571 -0.149,2.013 z"
     id="path10" /><path
     d="m 212.427,27.864827 c 0.934,0.245 2.113,0.345 3.539,0.345 5.16,0 8.305,-2.507 8.305,-7.078 0,-4.373 -3.096,-6.486 -7.814,-6.486 -1.868,0 -3.291,0.147 -4.03,0.343 z m -4.275,-15.969 c 2.064,-0.345 4.766,-0.641 8.208,-0.641 4.226,0 7.322,0.983 9.288,2.754 1.817,1.572 2.899,3.979 2.899,6.929 0,2.998 -0.886,5.356 -2.556,7.075 -2.26,2.409 -5.946,3.639 -10.123,3.639 -1.279,0 -2.458,-0.051 -3.441,-0.296 v 13.269 h -4.275 z"
     id="path12" /><path
     d="m 247.575,30.421827 c 0.048,-2.751 -1.133,-7.026 -5.997,-7.026 -4.373,0 -6.291,4.028 -6.633,7.026 z m -12.681,3.093 c 0.1,5.848 3.835,8.257 8.159,8.257 3.096,0 4.962,-0.541 6.586,-1.226 l 0.736,3.094 c -1.523,0.69 -4.128,1.524 -7.912,1.524 -7.322,0 -11.695,-4.865 -11.695,-12.04 0,-7.176 4.226,-12.826 11.155,-12.826 7.764,0 9.829,6.831 9.829,11.204 0,0.885 -0.1,1.571 -0.149,2.013 z"
     id="path14" /><path
     d="m 256.182,28.259827 c 0,-2.803 -0.049,-5.209 -0.198,-7.421 h 3.785 l 0.147,4.669 h 0.196 c 1.081,-3.196 3.686,-5.209 6.586,-5.209 0.492,0 0.837,0.049 1.228,0.147 v 4.079 c -0.443,-0.1 -0.883,-0.148 -1.475,-0.148 -3.045,0 -5.207,2.31 -5.798,5.553 -0.098,0.591 -0.196,1.277 -0.196,2.017 v 12.678 h -4.275 z"
     id="path16" /><rect
     x="271.27301"
     y="9.7318249"
     width="4.3239999"
     height="34.891998"
     id="rect18" /><path
     d="m 302.042,13.907827 c -2.702,0 -4.126,2.262 -4.126,4.818 0,2.358 1.081,4.177 2.505,5.945 3.342,-1.917 5.504,-3.685 5.504,-6.486 0,-2.015 -1.129,-4.277 -3.832,-4.277 z m -0.834,28.014 c 2.8,0 5.209,-1.277 6.782,-2.996 -1.967,-2.167 -5.652,-6.193 -9.338,-10.421 -1.768,1.13 -4.275,3.245 -4.275,6.734 0,3.784 2.8,6.683 6.782,6.683 z m 11.991,2.702 c -0.934,-0.933 -1.819,-1.868 -3.096,-3.243 -2.852,2.651 -6.046,3.784 -9.682,3.784 -6.438,0 -10.172,-4.324 -10.172,-9.287 0,-4.522 2.702,-7.618 6.486,-9.682 v -0.148 c -1.72,-2.164 -2.752,-4.571 -2.752,-6.931 0,-4.028 2.901,-8.156 8.404,-8.156 4.128,0 7.322,2.751 7.322,7.026 0,3.49 -2.015,6.242 -7.273,8.846 v 0.147 c 2.802,3.245 5.947,6.88 8.061,9.238 1.521,-2.308 2.553,-5.503 3.194,-9.678 h 3.93 c -0.885,5.209 -2.309,9.337 -4.767,12.236 1.768,1.868 3.49,3.732 5.454,5.848 z"
     id="path20" /><path
     d="m 335.962,27.028827 h 4.375 c 4.569,0 7.469,-2.504 7.469,-6.29 0,-4.275 -3.096,-6.141 -7.617,-6.19 -2.064,0 -3.537,0.195 -4.227,0.391 z m -4.275,-15.085 c 2.162,-0.442 5.258,-0.689 8.208,-0.689 4.569,0 7.518,0.836 9.581,2.704 1.671,1.473 2.605,3.735 2.605,6.291 0,4.373 -2.752,7.271 -6.242,8.452 v 0.147 c 2.557,0.885 4.08,3.245 4.864,6.684 1.082,4.618 1.869,7.814 2.556,9.091 h -4.422 c -0.54,-0.983 -1.278,-3.783 -2.211,-7.912 -0.982,-4.57 -2.753,-6.29 -6.635,-6.437 h -4.03 v 14.349 h -4.275 v -32.68 z"
     id="path22" /><path
     d="m 369.537,32.485827 c -4.718,-0.099 -10.074,0.735 -10.074,5.357 0,2.802 1.866,4.124 4.077,4.124 3.097,0 5.063,-1.962 5.75,-3.979 0.149,-0.443 0.247,-0.932 0.247,-1.375 z m 4.178,6.438 c 0,2.064 0.098,4.077 0.392,5.698 h -3.931 l -0.346,-2.996 h -0.146 c -1.326,1.865 -3.882,3.537 -7.274,3.537 -4.814,0 -7.272,-3.391 -7.272,-6.831 0,-5.749 5.11,-8.894 14.302,-8.846 v -0.491 c 0,-1.966 -0.54,-5.503 -5.407,-5.503 -2.211,0 -4.52,0.687 -6.191,1.768 l -0.981,-2.849 c 1.963,-1.279 4.815,-2.113 7.811,-2.113 7.274,0 9.045,4.962 9.045,9.729 v 8.897 z"
     id="path24" /><path
     d="m 384.039,31.748827 h 0.099 c 0.589,-0.836 1.426,-1.867 2.113,-2.703 l 6.979,-8.207 h 5.205 l -9.187,9.778 10.468,14.006 h -5.256 l -8.21,-11.4 -2.212,2.456 v 8.944 h -4.274 v -34.892 h 4.274 v 22.018 z"
     id="path26" /><path
     d="m 421.792,38.136827 c 0,2.455 0.047,4.617 0.196,6.486 h -3.835 l -0.247,-3.882 h -0.099 c -1.132,1.916 -3.634,4.422 -7.864,4.422 -3.732,0 -8.205,-2.064 -8.205,-10.418 v -13.906 h 4.323 v 13.171 c 0,4.52 1.38,7.566 5.312,7.566 2.894,0 4.912,-2.013 5.699,-3.933 0.242,-0.638 0.396,-1.426 0.396,-2.209 v -14.595 h 4.324 z"
     id="path28" /></g>










<g
   id="g883"
   transform="translate(-7.2320987,-7.343477)"><polygon
     points="438.561,70.325 438.561,37.204 456.397,37.204 456.397,40.791 442.833,40.791 442.833,51.8 455.367,51.8 455.367,55.336 442.833,55.336 442.833,70.325 "
     id="polygon30"
     transform="translate(-312.70977,28.761955)" /><path
     d="m 151.31023,87.242955 c 0,5.209 3.001,9.143 7.227,9.143 4.128,0 7.223,-3.882 7.223,-9.24 0,-4.028 -2.014,-9.14 -7.125,-9.14 -5.111,0 -7.325,4.717 -7.325,9.237 m 18.871,-0.246 c 0,8.797 -6.091,12.632 -11.841,12.632 -6.438,0 -11.401,-4.717 -11.401,-12.236 0,-7.963 5.21,-12.63 11.793,-12.63 6.83,-0.001 11.449,4.962 11.449,12.234"
     id="path32" /><path
     d="m 194.61323,92.600955 c 0,2.455 0.052,4.617 0.2,6.486 h -3.834 l -0.247,-3.882 h -0.098 c -1.128,1.916 -3.635,4.422 -7.861,4.422 -3.736,0 -8.21,-2.064 -8.21,-10.418 v -13.906 h 4.324 v 13.171 c 0,4.52 1.38,7.566 5.307,7.566 2.903,0 4.916,-2.013 5.704,-3.933 0.246,-0.638 0.392,-1.426 0.392,-2.209 v -14.595 h 4.323 z"
     id="path34" /><path
     d="m 200.81423,81.740955 c 0,-2.458 -0.051,-4.473 -0.195,-6.437 h 3.831 l 0.245,3.93 h 0.099 c 1.179,-2.26 3.933,-4.471 7.865,-4.471 3.289,0 8.401,1.964 8.401,10.123 v 14.202 h -4.325 v -13.71 c 0,-3.833 -1.425,-7.029 -5.503,-7.029 -2.851,0 -5.06,2.015 -5.8,4.424 -0.196,0.54 -0.294,1.277 -0.294,2.016 v 14.3 h -4.324 z"
     id="path36" /><path
     d="m 243.33223,84.982955 c 0,-0.54 -0.047,-1.276 -0.196,-1.817 -0.638,-2.754 -2.996,-5.014 -6.239,-5.014 -4.473,0 -7.129,3.933 -7.129,9.189 0,4.817 2.362,8.797 7.031,8.797 2.897,0 5.55,-1.915 6.337,-5.158 0.149,-0.592 0.196,-1.179 0.196,-1.868 z m 4.328,-20.788 v 28.751 c 0,2.111 0.047,4.521 0.195,6.142 h -3.886 l -0.196,-4.129 h -0.097 c -1.328,2.656 -4.227,4.67 -8.108,4.67 -5.75,0 -10.172,-4.865 -10.172,-12.092 -0.051,-7.91 4.865,-12.774 10.661,-12.774 3.639,0 6.095,1.719 7.176,3.636 h 0.099 v -14.204 z"
     id="path38" /><path
     d="m 266.38623,86.949955 c -4.715,-0.099 -10.073,0.735 -10.073,5.357 0,2.802 1.868,4.124 4.081,4.124 3.094,0 5.061,-1.962 5.75,-3.979 0.145,-0.443 0.242,-0.932 0.242,-1.375 z m 4.179,6.438 c 0,2.064 0.099,4.077 0.392,5.698 h -3.933 l -0.34,-2.996 h -0.148 c -1.328,1.865 -3.883,3.537 -7.274,3.537 -4.818,0 -7.273,-3.391 -7.273,-6.831 0,-5.749 5.111,-8.894 14.3,-8.846 v -0.491 c 0,-1.966 -0.54,-5.503 -5.404,-5.503 -2.209,0 -4.521,0.687 -6.193,1.768 l -0.982,-2.849 c 1.966,-1.279 4.817,-2.113 7.813,-2.113 7.273,0 9.044,4.962 9.044,9.729 v 8.897 z"
     id="path40" /><path
     d="m 281.82723,69.601955 v 5.701 h 6.191 v 3.292 h -6.191 v 12.829 c 0,2.948 0.834,4.616 3.243,4.616 1.179,0 1.867,-0.098 2.507,-0.294 l 0.194,3.244 c -0.834,0.344 -2.161,0.639 -3.834,0.639 -2.013,0 -3.635,-0.689 -4.669,-1.868 -1.226,-1.277 -1.668,-3.389 -1.668,-6.193 v -12.973 h -3.686 v -3.292 h 3.686 v -4.375 z"
     id="path42" /><path
     d="m 292.00723,75.302955 h 4.324 v 23.785 h -4.324 z m 4.818,-6.684 c 0.047,1.475 -1.034,2.654 -2.755,2.654 -1.522,0 -2.604,-1.179 -2.604,-2.654 0,-1.524 1.128,-2.703 2.702,-2.703 1.623,0 2.657,1.179 2.657,2.703"
     id="path44" /><path
     d="m 305.22723,87.242955 c 0,5.209 3.001,9.143 7.226,9.143 4.129,0 7.223,-3.882 7.223,-9.24 0,-4.028 -2.013,-9.14 -7.124,-9.14 -5.111,0 -7.325,4.717 -7.325,9.237 m 18.87,-0.246 c 0,8.797 -6.091,12.632 -11.84,12.632 -6.439,0 -11.401,-4.717 -11.401,-12.236 0,-7.963 5.209,-12.63 11.793,-12.63 6.83,-0.001 11.448,4.962 11.448,12.234"
     id="path46" /><path
     d="m 328.62923,81.740955 c 0,-2.458 -0.051,-4.473 -0.195,-6.437 h 3.831 l 0.246,3.93 h 0.098 c 1.179,-2.26 3.933,-4.471 7.865,-4.471 3.291,0 8.401,1.964 8.401,10.123 v 14.202 h -4.323 v -13.71 c 0,-3.833 -1.427,-7.029 -5.505,-7.029 -2.85,0 -5.06,2.015 -5.8,4.424 -0.195,0.54 -0.294,1.277 -0.294,2.016 v 14.3 h -4.324 z"
     id="path48" /><path
     fill="#808080"
     d="m 362.89023,60.651955 h -1.002 l -2.646,3.32 -2.607,-3.32 h -1.03 v 7.087 h 1.03 v -5.466 l 2.614,3.185 2.609,-3.274 v 5.555 h 1.031 v -7.087 z m -8.535,0 h -5.48 v 0.961 h 2.26 v 6.126 h 1.031 v -6.126 h 2.189 z"
     id="path50" /></g>
</svg>
